<?xml version="1.0" standalone="no"?>
<!DOCTYPE svg PUBLIC "-//W3C//DTD SVG 20010904//EN"
 "http://www.w3.org/TR/2001/REC-SVG-20010904/DTD/svg10.dtd">
<svg version="1.0" xmlns="http://www.w3.org/2000/svg"
 width="356.000000pt" height="475.000000pt" viewBox="0 0 356.000000 475.000000"
 preserveAspectRatio="xMidYMid meet">
<metadata>
Created by potrace 1.11, written by Peter Selinger 2001-2013
</metadata>
<g transform="translate(0.000000,475.000000) scale(0.100000,-0.100000)"
fill="#000000" stroke="none">
<path d="M1375 4230 c-33 -10 -106 -31 -163 -47 -86 -22 -109 -33 -135 -61
-41 -43 -107 -72 -163 -72 -82 0 -130 40 -149 122 l-12 53 -17 -40 c-30 -69
-47 -152 -49 -234 -2 -71 -3 -77 -19 -67 -13 8 -21 7 -33 -5 -13 -13 -13 -21
6 -73 22 -65 19 -85 -6 -36 -31 60 -87 131 -116 145 -62 33 -79 8 -28 -41 17
-16 44 -54 61 -84 17 -30 42 -69 55 -87 43 -58 4 -48 -50 13 -105 120 -132
144 -166 144 -17 0 -31 -1 -31 -2 0 -2 41 -45 90 -96 99 -104 152 -176 143
-198 -3 -8 -8 -14 -12 -14 -3 0 -49 32 -100 71 -68 50 -102 69 -120 67 -36 -4
-37 -25 -1 -43 17 -9 77 -53 133 -99 56 -45 122 -96 147 -113 25 -17 67 -51
94 -75 44 -40 48 -46 42 -75 -7 -30 -9 -31 -34 -22 l-27 10 28 -28 c16 -15 38
-43 50 -62 12 -19 47 -51 78 -70 31 -20 119 -83 196 -141 105 -79 143 -114
155 -142 18 -43 55 -69 97 -70 l30 -1 3 -256 c3 -245 2 -256 -17 -277 -30 -33
-68 -159 -60 -200 3 -19 10 -32 14 -30 5 3 17 -4 27 -15 32 -36 137 -79 192
-79 34 0 27 -13 -33 -65 -50 -42 -86 -90 -85 -112 1 -4 10 9 20 29 11 20 41
53 67 74 27 21 55 45 63 54 8 9 36 24 62 34 37 14 50 24 59 50 l12 32 76 -14
c47 -8 115 -12 179 -9 60 3 102 1 102 -5 0 -12 120 -68 147 -68 12 0 27 -8 32
-18 6 -11 48 -44 94 -75 53 -36 90 -69 102 -91 11 -20 21 -33 23 -31 13 13
-50 83 -107 120 -36 24 -77 55 -90 69 -22 23 -22 26 -6 26 22 0 118 52 158 86
38 32 51 30 82 -10 38 -50 98 -76 171 -74 51 1 53 2 14 5 -85 6 -110 14 -146
45 -50 44 -55 58 -39 104 25 70 15 181 -20 224 -7 9 -15 62 -19 125 -5 95 -41
307 -61 356 -5 13 2 19 32 26 59 14 56 42 -9 89 l-53 39 45 6 c33 4 20 6 -49
7 -81 2 -100 6 -136 27 -52 30 -75 81 -75 166 0 74 18 119 61 152 46 35 64 38
221 40 123 2 139 4 166 24 l30 22 6 -30 c10 -51 43 -113 83 -153 33 -34 49
-42 113 -55 69 -15 75 -18 78 -43 4 -37 -14 -67 -51 -83 -20 -9 -25 -14 -14
-15 10 0 32 14 49 30 24 25 29 37 26 64 -3 30 -1 35 22 39 45 10 108 65 174
154 36 49 99 119 141 156 41 38 82 82 90 97 15 29 11 60 -8 60 -14 0 -94 -47
-142 -84 l-40 -31 19 30 c11 17 42 69 68 117 47 84 59 130 38 143 -21 13 -47
-7 -100 -79 -30 -41 -57 -73 -59 -71 -2 2 20 51 49 109 28 58 50 114 48 123
-2 13 -13 18 -33 18 -25 0 -36 -9 -68 -55 -20 -30 -53 -83 -73 -117 -20 -35
-37 -63 -38 -63 -6 0 35 142 48 169 29 56 12 111 -31 97 -24 -8 -37 -30 -88
-148 -42 -98 -133 -257 -147 -258 -5 0 -8 29 -8 65 0 76 -18 127 -53 150 -20
13 -30 14 -46 5 -19 -10 -21 -20 -21 -104 0 -94 -16 -203 -31 -221 -5 -5 -9
-1 -9 11 0 12 -9 29 -20 39 -21 19 -116 45 -168 45 -28 0 -32 3 -27 20 9 28
-12 97 -35 113 -19 13 -19 15 6 76 40 99 57 194 51 291 -5 77 -34 194 -56 229
-6 10 -97 17 -392 32 -473 23 -499 23 -574 -1z m316 -56 c22 -19 25 -65 7 -97
-7 -12 -15 -44 -19 -72 -4 -27 -10 -60 -14 -72 -7 -21 -4 -23 31 -24 28 -1 32
-3 14 -6 -14 -3 -29 -9 -34 -14 -21 -20 -46 -8 -66 31 -19 37 -19 40 -3 40 38
1 -28 39 -79 46 l-50 7 6 44 c8 63 34 103 81 125 46 21 97 18 126 -8z m227
-35 c24 -7 52 -24 63 -37 24 -31 25 -78 1 -91 -24 -13 -251 -53 -263 -46 -16
11 -9 69 14 110 23 42 97 89 127 81 8 -3 34 -10 58 -17z m-878 -234 l0 -45 90
0 c97 0 110 7 110 64 0 19 5 26 20 26 15 0 20 -7 20 -29 0 -43 -10 -61 -32
-61 -11 0 -34 -16 -52 -35 l-33 -35 31 0 c29 -1 30 -1 12 -15 -18 -14 -11 -15
73 -15 85 0 92 2 86 18 -19 46 -18 52 9 52 14 0 26 -4 26 -10 0 -6 41 -10 104
-10 59 0 108 4 111 10 3 6 17 10 31 10 21 0 24 -3 18 -25 -8 -33 14 -25 44 14
30 40 94 47 209 22 124 -27 280 -85 322 -120 31 -25 36 -34 35 -70 -1 -31 -9
-51 -33 -79 -17 -20 -56 -72 -87 -114 -30 -43 -71 -91 -91 -107 -100 -83 -303
-143 -490 -145 -88 -1 -105 2 -130 20 -35 26 -63 79 -63 122 0 68 -48 122
-150 169 l-59 27 -5 70 c-4 39 -7 89 -9 111 l-2 40 -57 3 c-32 2 -58 7 -58 12
0 6 9 10 20 10 18 0 18 1 -3 35 -14 21 -30 34 -44 35 -29 0 -35 13 -27 55 5
28 11 35 30 35 22 0 24 -4 24 -45z m1990 -55 c0 -11 -7 -37 -16 -58 -18 -41
-64 -206 -64 -228 0 -30 30 -12 57 34 78 134 160 249 170 238 9 -9 -105 -245
-135 -278 -25 -27 -25 -63 0 -52 7 3 42 41 78 85 77 94 130 148 130 131 0 -21
-66 -145 -114 -215 -25 -37 -46 -72 -46 -77 0 -23 37 -6 101 45 74 60 119 83
119 62 0 -7 -43 -55 -96 -107 -53 -52 -116 -123 -140 -156 -51 -71 -113 -130
-152 -145 -28 -11 -114 -6 -154 10 -13 5 -41 34 -63 66 -47 69 -56 123 -44
270 15 183 20 214 33 209 24 -9 39 -53 45 -136 6 -81 7 -83 33 -86 23 -3 31 5
67 65 22 37 59 110 81 162 66 152 110 216 110 161z m-679 -272 c7 -13 13 -41
13 -63 1 -31 -5 -46 -28 -68 -26 -26 -33 -28 -77 -22 -27 4 -51 11 -54 15 -3
5 17 34 45 65 27 32 52 66 55 76 8 26 32 24 46 -3z m104 -139 c69 -13 115 -34
115 -53 0 -31 -39 -49 -108 -50 l-67 -1 0 29 c0 21 -6 31 -22 37 -38 14 -29
38 18 48 3 0 32 -4 64 -10z m-1482 -52 c29 -23 95 -64 147 -91 52 -27 96 -50
98 -51 1 -1 -3 -16 -9 -34 -9 -27 -8 -42 11 -93 24 -67 24 -137 -1 -196 l-14
-33 -85 63 c-47 36 -116 88 -153 116 -38 29 -86 61 -108 72 -67 35 -86 99 -49
174 25 53 78 116 96 116 8 0 38 -19 67 -43z m1260 18 c20 -8 51 -15 69 -15 42
0 61 -12 56 -36 -2 -15 -15 -20 -58 -25 -109 -12 -172 -64 -190 -158 -10 -51
0 -133 19 -169 24 -44 82 -80 132 -84 33 -2 149 -80 149 -99 0 -16 -173 -10
-231 7 -69 21 -105 46 -128 92 -44 87 -56 283 -22 357 20 45 125 145 152 145
9 0 33 -7 52 -15z m-241 -174 c-13 -54 -14 -79 -4 -156 26 -203 77 -260 255
-284 43 -6 82 -11 87 -11 14 0 39 -92 60 -225 21 -128 26 -265 10 -265 -5 0
-53 -39 -106 -87 -105 -96 -149 -127 -207 -145 -21 -6 -47 -23 -59 -37 -18
-24 -27 -26 -114 -29 -125 -5 -230 13 -256 43 -11 13 -35 26 -54 29 -22 5 -48
22 -76 53 -92 99 -124 130 -137 134 -20 7 -28 90 -26 259 1 80 3 235 5 345 2
132 -2 225 -10 273 -7 39 -11 75 -7 78 3 3 55 0 115 -7 156 -17 316 7 471 71
36 15 67 27 67 26 1 0 -5 -30 -14 -65z m-671 -41 c26 -94 29 -131 23 -266 -6
-129 -9 -144 -25 -144 -26 0 -77 47 -84 78 -3 15 1 47 10 71 19 55 19 141 0
188 -16 38 -20 85 -8 97 4 4 23 6 42 4 28 -2 37 -8 42 -28z m1109 -920 c38
-20 50 -183 16 -223 -22 -26 -184 -127 -213 -133 -64 -13 -203 51 -203 92 0 8
12 19 28 26 98 40 141 68 220 142 74 70 116 104 130 106 2 0 12 -4 22 -10z
m-1021 -44 c15 -8 40 -33 56 -55 40 -58 101 -111 136 -118 36 -7 63 -44 54
-72 -10 -31 -52 -59 -100 -67 -47 -7 -166 23 -212 53 -29 19 -53 63 -53 97 0
54 59 176 85 176 4 0 18 -6 34 -14z"/>
<path d="M3238 2152 c-48 -26 -91 -52 -95 -56 -4 -5 35 14 88 42 53 29 102 52
108 52 6 0 -36 -41 -95 -92 -217 -187 -461 -414 -562 -521 -29 -31 -65 -63
-80 -72 -37 -20 -21 -19 23 2 19 9 35 22 35 28 0 15 224 233 395 385 259 230
285 252 285 243 0 -16 -279 -322 -377 -412 -75 -70 -121 -105 -279 -209 -10
-7 -1 -4 21 7 119 57 302 219 509 451 120 134 146 167 146 187 0 23 -33 13
-122 -35z"/>
</g>
</svg>
